<svg xmlns="http://www.w3.org/2000/svg" xmlns:xlink="http://www.w3.org/1999/xlink" version="1.1" x="0px" y="0px" viewBox="0 0 1000 1250" style="enable-background:new 0 0 1000 1000;" xml:space="preserve"><style type="text/css">
	.st0{fill:#010101;}
</style><g><g><path class="st0" d="M753.9,681.5L648.5,544.1l0.1-0.3l-280.9,0.9l0.1,0.2L262.5,682.3c-9.4,12.2-7.1,29.6,5.1,39    c5,3.9,11,5.8,16.9,5.8c8.3,0,16.6-3.7,22.1-10.9l92.3-120.3l32.8,53.7l39.2,0.2c-5.4,7.9-8.6,17.5-8.6,27.9    c0,27.3,22.1,49.5,49.4,49.5c27.3,0,49.5-22.1,49.5-49.5c0-10.1-3-19.6-8.3-27.4l40.1,0.2l27.1-52l89.6,116.8    c5.5,7.2,13.8,10.9,22.1,10.9c5.9,0,11.9-1.9,16.9-5.7C761,711.1,763.3,693.7,753.9,681.5z M511.7,707.3    c-16.4,0-29.7-13.3-29.7-29.7c0-12.6,7.9-23.4,19.1-27.7c3.3-1.3,6.8-2,10.6-2c3.9,0,7.5,0.7,10.9,2.1c11,4.3,18.8,15.1,18.8,27.6    C541.4,694.1,528.1,707.3,511.7,707.3z"/></g><g><path class="st0" d="M958,288.6v1.9c0,0-2.4,0-6.7,0.1c-4.3,0.1-10.3,0.3-17.7,0.3c-14.6,0.1-34,0.3-53.5,0.4    c-19.5-0.2-38.9-0.3-53.5-0.4c-6.2,0-11.6-0.2-15.7-0.3v42.8h9.3c12.6,0,22.9,10.3,22.9,22.9v76c0,12.6-10.3,22.8-22.9,22.8h-31    c-1.4,0-2.9-0.1-4.2-0.4l-148.3,55.4H373.2l-151-56c-2.1,0.6-4.3,1-6.6,1h-31c-12.6,0-22.8-10.3-22.8-22.8v-76    c0-12.6,10.3-22.9,22.8-22.9h3.2v-38.6c-1.4,0.6-2.9,1.1-4.5,1.6c-3,1-6.3,2.2-10,3.1c-7.3,2-15.8,3.7-24.9,4.8    c-4.6,0.6-9.3,1.1-14.1,1.3c-4.8,0.4-9.6,0.4-14.5,0.5c-4.9-0.1-9.8-0.1-14.5-0.5c-2.4-0.1-4.8-0.3-7.1-0.6    c-2.3-0.2-4.7-0.4-6.9-0.7c-9.2-1.1-17.7-2.9-25-4.9c-3.7-1-7-2.1-10-3.1c-3-0.9-5.5-2-7.7-2.9c-2.1-0.8-3.8-1.7-4.9-2.2    c-1.1-0.6-1.7-0.9-1.7-0.9v-1.9c0,0,2.4-0.1,6.7-0.2c4.3,0,10.3-0.3,17.7-0.3c14.6-0.1,34.1-0.3,53.5-0.4    c19.5,0.1,38.9,0.3,53.5,0.4c7.3,0,13.4,0.3,17.7,0.3c4.3,0.1,6.7,0.2,6.7,0.2s0.6-0.4,1.7-0.9c1.1-0.5,2.8-1.4,4.9-2.2    c2.2-0.9,4.7-2,7.7-2.9c3-1,6.3-2.2,10-3.1c7.3-2,15.8-3.7,25-4.8c2.3-0.4,4.6-0.6,6.9-0.8c2.3-0.3,4.7-0.4,7.1-0.6    c4.8-0.3,9.6-0.4,14.5-0.4c4.9,0.1,9.7,0.1,14.5,0.5c4.8,0.3,9.5,0.7,14.1,1.3c9.1,1.1,17.7,2.9,24.9,4.9c3.7,0.9,7,2.1,10,3.1    c3,0.9,5.6,2,7.7,2.9c2.2,0.8,3.8,1.7,4.9,2.2c1.1,0.6,1.8,0.9,1.8,0.9v1.9c0,0-2.4,0-6.7,0.1c-4.3,0.1-10.3,0.3-17.7,0.3    c-14.6,0.1-34,0.3-53.5,0.4c-19.5-0.2-38.9-0.3-53.5-0.4c-6.2,0-11.6-0.2-15.7-0.3v42.8h9.3c12.6,0,22.9,10.3,22.9,22.9v44.6    l144.7,53.7h8.5c12.2-28.7,40.7-48.8,73.8-48.8h92.7c22.1,0,42.2,9,56.7,23.5c6.8,6.8,12.3,14.8,16.3,23.6l135-50.5v-46    c0-12.6,10.3-22.9,22.8-22.9h3.2v-38.6c-1.4,0.6-2.9,1.1-4.5,1.6c-3,1-6.3,2.2-10,3.1c-7.3,2-15.8,3.7-24.9,4.8    c-4.6,0.6-9.3,1.1-14.1,1.3c-4.8,0.4-9.6,0.4-14.5,0.5c-4.9-0.1-9.8-0.1-14.5-0.5c-2.4-0.1-4.8-0.3-7.1-0.6    c-2.3-0.2-4.7-0.4-6.9-0.7c-9.2-1.1-17.7-2.9-25-4.9c-3.7-1-7-2.1-10-3.1c-3-0.9-5.5-2-7.7-2.9c-2.1-0.8-3.8-1.7-4.9-2.2    c-1.1-0.6-1.7-0.9-1.7-0.9v-1.9c0,0,2.4-0.1,6.7-0.2c4.3,0,10.3-0.3,17.7-0.3c14.6-0.1,34.1-0.3,53.5-0.4    c19.5,0.1,38.9,0.3,53.5,0.4c7.3,0,13.4,0.3,17.7,0.3c4.3,0.1,6.7,0.2,6.7,0.2s0.6-0.4,1.7-0.9c1.1-0.5,2.8-1.4,4.9-2.2    c2.2-0.9,4.7-2,7.7-2.9c3-1,6.3-2.2,10-3.1c7.3-2,15.8-3.7,25-4.8c2.3-0.4,4.6-0.6,6.9-0.8c2.3-0.3,4.7-0.4,7.1-0.6    c4.8-0.3,9.6-0.4,14.5-0.4c4.9,0.1,9.7,0.1,14.5,0.5c4.8,0.3,9.5,0.7,14.1,1.3c9.1,1.1,17.7,2.9,24.9,4.9c3.7,0.9,7,2.1,10,3.1    c3,0.9,5.6,2,7.7,2.9c2.2,0.8,3.8,1.7,4.9,2.2C957.4,288.3,958,288.6,958,288.6z"/></g></g><text x="0" y="1015" fill="#000000" font-size="5px" font-weight="bold" font-family="'Helvetica Neue', Helvetica, Arial-Unicode, Arial, Sans-serif">Created by leo-graph.com</text><text x="0" y="1020" fill="#000000" font-size="5px" font-weight="bold" font-family="'Helvetica Neue', Helvetica, Arial-Unicode, Arial, Sans-serif">from the Noun Project</text></svg>