<?xml version="1.0" encoding="UTF-8" standalone="no"?> <svg id="Multicolor" xmlns="http://www.w3.org/2000/svg" viewBox="0 0 84 86"><defs><style>.cls-1{fill:#e8f4fa;}.cls-2{fill:#f0ffe5;}.cls-2,.cls-3{stroke:#6dd627;}.cls-11,.cls-12,.cls-15,.cls-2,.cls-3,.cls-6,.cls-7,.cls-8,.cls-9{stroke-linejoin:round;}.cls-3{fill:#c8ffa1;}.cls-4{fill:#c0dceb;}.cls-5,.cls-7{fill:none;}.cls-11,.cls-12,.cls-15,.cls-5,.cls-6,.cls-7,.cls-8,.cls-9{stroke:#45413c;}.cls-5{stroke-miterlimit:10;}.cls-6{fill:#adc4d9;}.cls-12,.cls-7,.cls-8,.cls-9{stroke-linecap:round;}.cls-10,.cls-15,.cls-8{fill:#fff;}.cls-9{fill:#ebcb00;}.cls-11{fill:#ff6242;}.cls-12{fill:#bf8256;}.cls-13{fill:#6dd627;}.cls-14{fill:#9ceb60;}</style></defs><title>Security drone</title><g id="Background"><g id="New_Symbol_2-8" data-name="New Symbol 2"><circle class="cls-1" cx="41.97" cy="44" r="40"/></g></g><g id="Scene"><polyline class="cls-2" points="72.14 73.18 46.97 36.5 36.97 36.5 11.81 73.18"/><ellipse class="cls-3" cx="41.97" cy="74" rx="30.5" ry="5.5"/><path class="cls-1" d="M28.56,35.19a1.57,1.57,0,0,1-1.25-.61l-1.15-1.48a9.24,9.24,0,0,1,.93-12.37l5.5-5.23a1.58,1.58,0,0,1,2.17,2.29L29.27,23a6.08,6.08,0,0,0-.61,8.15l1.15,1.48a1.58,1.58,0,0,1-1.24,2.55Z"/><path class="cls-4" d="M32.6,15.51l-4.06,3.86h1.95a12.56,12.56,0,0,1,2.39.23l1.9-1.8a1.58,1.58,0,0,0-2.17-2.29Z"/><path class="cls-5" d="M28.56,35.19a1.57,1.57,0,0,1-1.25-.61l-1.15-1.48a9.24,9.24,0,0,1,.93-12.37l5.5-5.23a1.58,1.58,0,0,1,2.17,2.29L29.27,23a6.08,6.08,0,0,0-.61,8.15l1.15,1.48a1.58,1.58,0,0,1-1.24,2.55Z"/><path class="cls-1" d="M55.38,35.19a1.57,1.57,0,0,0,1.25-.61l1.15-1.48a9.24,9.24,0,0,0-.93-12.37l-5.5-5.23a1.58,1.58,0,0,0-2.17,2.29L54.68,23a6.08,6.08,0,0,1,.61,8.15l-1.15,1.48a1.58,1.58,0,0,0,1.24,2.55Z"/><path class="cls-4" d="M51.34,15.51l4.06,3.86H53.46a12.56,12.56,0,0,0-2.39.23l-1.9-1.8a1.58,1.58,0,0,1,2.17-2.29Z"/><path class="cls-5" d="M55.38,35.19a1.57,1.57,0,0,0,1.25-.61l1.15-1.48a9.24,9.24,0,0,0-.93-12.37l-5.5-5.23a1.58,1.58,0,0,0-2.17,2.29L54.68,23a6.08,6.08,0,0,1,.61,8.15l-1.15,1.48a1.58,1.58,0,0,0,1.24,2.55Z"/><path class="cls-6" d="M34.78,14.9H49.16a0,0,0,0,1,0,0v5.55a3,3,0,0,1-3,3h-8.4a3,3,0,0,1-3-3V14.9a0,0,0,0,1,0,0Z"/><line class="cls-7" x1="57.7" y1="4.12" x2="57.7" y2="7.27"/><path class="cls-8" d="M64,4.12a5.17,5.17,0,0,1-3.15,1.35A5.17,5.17,0,0,1,57.7,4.12a5.17,5.17,0,0,1,3.15-1.35A5.17,5.17,0,0,1,64,4.12Z"/><path class="cls-8" d="M51.41,4.12a5.17,5.17,0,0,0,3.15,1.35A5.17,5.17,0,0,0,57.7,4.12a5.17,5.17,0,0,0-3.15-1.35A5.17,5.17,0,0,0,51.41,4.12Z"/><path class="cls-9" d="M59.5,9.51H55.9V9.06a1.8,1.8,0,1,1,3.59,0Z"/><line class="cls-7" x1="26.25" y1="4.12" x2="26.25" y2="7.27"/><path class="cls-8" d="M20,4.12A5.17,5.17,0,0,0,23.1,5.47a5.17,5.17,0,0,0,3.15-1.35A5.17,5.17,0,0,0,23.1,2.77,5.17,5.17,0,0,0,20,4.12Z"/><path class="cls-8" d="M32.54,4.12a5.17,5.17,0,0,1-3.15,1.35,5.17,5.17,0,0,1-3.15-1.35,5.17,5.17,0,0,1,3.15-1.35A5.17,5.17,0,0,1,32.54,4.12Z"/><path class="cls-9" d="M24.45,9.51H28V9.06a1.8,1.8,0,1,0-3.59,0Z"/><path class="cls-1" d="M63.09,13.56a4,4,0,0,0-4-4H53.46A12.52,12.52,0,0,1,46.3,7.27a7.61,7.61,0,0,0-8.66,0,12.57,12.57,0,0,1-7.16,2.24H24.9a4,4,0,0,0,0,8.09h5.59a12.52,12.52,0,0,1,7.16,2.24,7.61,7.61,0,0,0,8.66,0,12.57,12.57,0,0,1,7.16-2.24H59A4,4,0,0,0,63.09,13.56Z"/><path class="cls-10" d="M24.9,12.21h5.59A12.57,12.57,0,0,0,37.64,10a7.61,7.61,0,0,1,8.66,0,12.52,12.52,0,0,0,7.16,2.24H59a4,4,0,0,1,3.8,2.7A4,4,0,0,0,59,9.51H53.46A12.52,12.52,0,0,1,46.3,7.27a7.61,7.61,0,0,0-8.66,0,12.57,12.57,0,0,1-7.16,2.24H24.9a4,4,0,0,0-3.8,5.39A4,4,0,0,1,24.9,12.21Z"/><path class="cls-7" d="M63.09,13.56a4,4,0,0,0-4-4H53.46A12.52,12.52,0,0,1,46.3,7.27a7.61,7.61,0,0,0-8.66,0,12.57,12.57,0,0,1-7.16,2.24H24.9a4,4,0,0,0,0,8.09h5.59a12.52,12.52,0,0,1,7.16,2.24,7.61,7.61,0,0,0,8.66,0,12.57,12.57,0,0,1,7.16-2.24H59A4,4,0,0,0,63.09,13.56Z"/><path class="cls-11" d="M29.39,13.11a.9.9,0,0,1-1.8,0V9.51h1.8Z"/><path class="cls-11" d="M32.09,9.4v3.71a.9.9,0,1,0,1.8,0V9A12.54,12.54,0,0,1,32.09,9.4Z"/><path class="cls-11" d="M54.55,13.11a.9.9,0,1,0,1.8,0V9.51h-1.8Z"/><path class="cls-11" d="M51.86,9.4v3.71a.9.9,0,1,1-1.8,0V9A12.54,12.54,0,0,0,51.86,9.4Z"/><line class="cls-7" x1="36.13" y1="11.31" x2="36.13" y2="13.11"/><line class="cls-7" x1="37.93" y1="11.31" x2="37.93" y2="13.11"/><line class="cls-7" x1="46.02" y1="11.31" x2="46.02" y2="13.11"/><line class="cls-7" x1="47.81" y1="11.31" x2="47.81" y2="13.11"/><polygon class="cls-8" points="41.97 57.06 33.77 62.11 33.77 74 50.17 74 50.17 62.11 41.97 57.06"/><path class="cls-11" d="M52.63,63.34a1.64,1.64,0,0,1-.86-.24l-9.8-6-9.8,6a1.64,1.64,0,0,1-1.72-2.79l10.66-6.56a1.65,1.65,0,0,1,1.72,0L53.49,60.3a1.64,1.64,0,0,1-.86,3Z"/><path class="cls-12" d="M44.43,74H39.51V68.26a2.46,2.46,0,0,1,4.92,0Z"/><path class="cls-13" d="M42,27.28l8,2.8a1.24,1.24,0,0,1,.83,1.17v8.59c0,6-8.85,9.27-8.85,9.27s-8.85-3.29-8.85-9.27V31.25a1.24,1.24,0,0,1,.83-1.17Z"/><path class="cls-14" d="M42,49.11s-8.85-3.29-8.85-9.27V31.25a1.24,1.24,0,0,1,.83-1.17l8-2.8Z"/><path class="cls-7" d="M42,27.28l8,2.8a1.24,1.24,0,0,1,.83,1.17v8.59c0,6-8.85,9.27-8.85,9.27s-8.85-3.29-8.85-9.27V31.25a1.24,1.24,0,0,1,.83-1.17Z"/><path class="cls-15" d="M47.45,36.83a1,1,0,0,1,0,1.31c-.94,1.09-3,3.14-5.48,3.14s-4.54-2.06-5.48-3.14a1,1,0,0,1,0-1.31c.94-1.09,3-3.14,5.48-3.14S46.51,35.75,47.45,36.83Z"/><circle class="cls-11" cx="41.97" cy="37.49" r="2"/></g></svg>